<svg xmlns="http://www.w3.org/2000/svg" xmlns:xlink="http://www.w3.org/1999/xlink" version="1.1" x="0px" y="0px" viewBox="0 0 100 100" style="enable-background:new 0 0 100 100;" xml:space="preserve"><path d="M89,37.1210938H62.3515625v-7.9082031h9.4990234c0.5527344,0,1-0.4472656,1-1V11c0-0.5527344-0.4472656-1-1-1H28.1494141  c-0.5527344,0-1,0.4472656-1,1v17.2128906c0,0.5527344,0.4472656,1,1,1h9.4990234v7.9082031H11c-0.5527344,0-1,0.4472656-1,1V89  c0,0.5527344,0.4472656,1,1,1h78c0.5527344,0,1-0.4472656,1-1V38.1210938C90,37.5683594,89.5527344,37.1210938,89,37.1210938z   M84.5627441,39.1210938l-8.560791,33.9960938c-0.5498047,2.1884766-2.5107422,3.7167969-4.7675781,3.7167969h-42.46875  c-2.2568359,0-4.2177734-1.5283203-4.7675781-3.7167969l-8.560791-33.9960938H84.5627441z M29.1494141,12h41.7011719v15.2128906  H29.1494141V12z M39.6484375,29.2128906h20.703125v7.9082031h-20.703125V29.2128906z M88,88H12V39.1210938h1.3748779  l8.6837158,34.484375c0.7734375,3.078125,3.5322266,5.2285156,6.7070312,5.2285156h42.46875  c3.1748047,0,5.9335938-2.1503906,6.7070312-5.2285156l8.6837158-34.484375H88V88z"></path></svg>